<svg width="23" height="24" viewBox="0 0 23 24" fill="none" xmlns="http://www.w3.org/2000/svg">
<path fill-rule="evenodd" clip-rule="evenodd" d="M5.98 2.00222H16.0425C17.3572 1.96192 18.6327 2.47191 19.5849 3.4186C20.5372 4.36529 21.0871 5.67004 21.1121 7.04222V14.6322C21.0337 17.4531 18.7944 19.6827 16.0904 19.6322H14.5379C14.1477 19.6333 13.7784 19.8168 13.5317 20.1322L12.0654 22.0822C11.8198 22.3994 11.4499 22.5837 11.0592 22.5837C10.6684 22.5837 10.2985 22.3994 10.0529 22.0822L8.53875 20.0922C8.29198 19.7768 7.92274 19.5933 7.5325 19.5922H5.98C3.276 19.6427 1.03667 17.4131 0.958334 14.5922V7.00222C1.03152 4.17899 3.27395 1.94624 5.98 2.00222ZM16.0521 18.1322C17.9769 18.1827 19.5788 16.6004 19.6362 14.5922V7.04222C19.5789 5.02999 17.971 3.44617 16.0425 3.50222H5.98C4.05151 3.44617 2.44364 5.02999 2.38625 7.04222V14.5922C2.44364 16.6044 4.05151 18.1883 5.98 18.1322H7.5325C8.36347 18.1324 9.1495 18.5259 9.66958 19.2022L11.0113 20.9822L12.3529 19.2022C12.873 18.5259 13.659 18.1324 14.49 18.1322H16.0521Z" fill="#333333"/>
<path d="M7.4175 8.96216C7.02054 8.96216 6.69875 9.29794 6.69875 9.71216V12.1122C6.69875 12.5264 7.02054 12.8622 7.4175 12.8622C7.81445 12.8622 8.13625 12.5264 8.13625 12.1122V9.71216C8.13625 9.29794 7.81445 8.96216 7.4175 8.96216V8.96216Z" fill="#333333"/>
<path d="M11.0112 8.96216C10.6143 8.96216 10.2925 9.29794 10.2925 9.71216V12.1122C10.2925 12.5264 10.6143 12.8622 11.0112 12.8622C11.4082 12.8622 11.73 12.5264 11.73 12.1122V9.71216C11.73 9.29794 11.4082 8.96216 11.0112 8.96216V8.96216Z" fill="#333333"/>
<path d="M14.605 8.96216C14.208 8.96216 13.8862 9.29794 13.8862 9.71216V12.1122C13.8862 12.5264 14.208 12.8622 14.605 12.8622C15.002 12.8622 15.3237 12.5264 15.3237 12.1122V9.71216C15.3237 9.29794 15.002 8.96216 14.605 8.96216V8.96216Z" fill="#333333"/>
</svg>
