<svg width="24" height="24" viewBox="0 0 24 24" fill="none" xmlns="http://www.w3.org/2000/svg">
<path d="M14.2695 2C15.0787 1.99888 15.7475 2.63235 15.79 3.44043C18.1649 3.70749 19.9695 5.70026 20 8.08985V18.1797C19.9945 20.8008 17.8711 22.9242 15.25 22.9297H8.75C6.12893 22.9242 4.0055 20.8008 4 18.1797V8.08985C4.03049 5.70026 5.83514 3.70749 8.20996 3.44043C8.25743 2.63462 8.92327 2.00388 9.73047 2H14.2695ZM15.7695 4.88965C15.6468 5.62101 15.0111 6.15571 14.2695 6.15039H9.73047C8.9889 6.15571 8.35323 5.62101 8.23047 4.88965C6.65988 5.14422 5.50406 6.49878 5.5 8.08985V18.1797C5.49999 19.9762 6.95346 21.4349 8.75 21.4404H15.25C17.0465 21.4349 18.5 19.9762 18.5 18.1797V8.08985C18.4959 6.49878 17.3401 5.14422 15.7695 4.88965ZM14.2295 15.5C14.6437 15.5 14.9795 15.8358 14.9795 16.25C14.9795 16.6642 14.6437 17 14.2295 17H8.92969C8.51563 16.9998 8.17971 16.6641 8.17969 16.25C8.17971 15.8359 8.51563 15.5002 8.92969 15.5H14.2295ZM15.0693 12.5703C15.4835 12.5703 15.8193 12.9061 15.8193 13.3203C15.8191 13.7344 15.4834 14.0703 15.0693 14.0703H8.92969C8.51573 14.0701 8.17988 13.7343 8.17969 13.3203C8.17971 12.9062 8.51563 12.5705 8.92969 12.5703H15.0693ZM12.0498 9.45996C12.464 9.46003 12.7998 9.79581 12.7998 10.21C12.7998 10.6241 12.464 10.9599 12.0498 10.96H8.92969C8.51562 10.9598 8.17969 10.6241 8.17969 10.21C8.17971 9.79587 8.51563 9.46013 8.92969 9.45996H12.0498ZM9.73047 4.62988H14.29V3.44043H9.73047V4.62988Z" fill="#333333"/>
</svg>
