<svg width="24" height="24" viewBox="0 0 24 24" fill="none" xmlns="http://www.w3.org/2000/svg">
<path fill-rule="evenodd" clip-rule="evenodd" d="M4 7.50006C4 5.56706 5.567 4.00006 7.5 4.00006C9.433 4.00006 11 5.56706 11 7.50006C11 9.43306 9.433 11.0001 7.5 11.0001C5.567 11.0001 4 9.43306 4 7.50006ZM9.5 7.50006C9.5 6.39549 8.60457 5.50006 7.5 5.50006C6.39543 5.50006 5.5 6.39549 5.5 7.50006C5.5 8.60463 6.39543 9.50006 7.5 9.50006C8.60457 9.50006 9.5 8.60463 9.5 7.50006Z" fill="white"/>
<path fill-rule="evenodd" clip-rule="evenodd" d="M14 7.50006C14 5.56706 15.567 4.00006 17.5 4.00006C19.433 4.00006 21 5.56706 21 7.50006C21 9.43306 19.433 11.0001 17.5 11.0001C15.567 11.0001 14 9.43306 14 7.50006ZM19.5 7.50006C19.5 6.39549 18.6046 5.50006 17.5 5.50006C16.3954 5.50006 15.5 6.39549 15.5 7.50006C15.5 8.60463 16.3954 9.50006 17.5 9.50006C18.6046 9.50006 19.5 8.60463 19.5 7.50006Z" fill="white"/>
<path fill-rule="evenodd" clip-rule="evenodd" d="M4 17.5001C4 15.5671 5.567 14.0001 7.5 14.0001C9.433 14.0001 11 15.5671 11 17.5001C11 19.4331 9.433 21.0001 7.5 21.0001C5.567 21.0001 4 19.4331 4 17.5001ZM9.5 17.5001C9.5 16.3955 8.60457 15.5001 7.5 15.5001C6.39543 15.5001 5.5 16.3955 5.5 17.5001C5.5 18.6046 6.39543 19.5001 7.5 19.5001C8.60457 19.5001 9.5 18.6046 9.5 17.5001Z" fill="white"/>
<path fill-rule="evenodd" clip-rule="evenodd" d="M14 17.5001C14 15.5671 15.567 14.0001 17.5 14.0001C19.433 14.0001 21 15.5671 21 17.5001C21 19.4331 19.433 21.0001 17.5 21.0001C15.567 21.0001 14 19.4331 14 17.5001ZM19.5 17.5001C19.5 16.3955 18.6046 15.5001 17.5 15.5001C16.3954 15.5001 15.5 16.3955 15.5 17.5001C15.5 18.6046 16.3954 19.5001 17.5 19.5001C18.6046 19.5001 19.5 18.6046 19.5 17.5001Z" fill="white"/>
</svg>
