<svg width="24" height="24" viewBox="0 0 24 24" fill="none" xmlns="http://www.w3.org/2000/svg">
<path fill-rule="evenodd" clip-rule="evenodd" d="M4.57999 2.00006H8.74999C9.99263 2.00006 11 3.00742 11 4.25006V6.42006C11 7.6627 9.99263 8.67006 8.74999 8.67006H4.57999C3.33735 8.67006 2.32999 7.6627 2.32999 6.42006V4.25006C2.32999 3.00742 3.33735 2.00006 4.57999 2.00006ZM8.74999 7.17006C9.16195 7.16468 9.4946 6.83202 9.49999 6.42006V4.25006C9.4946 3.8381 9.16195 3.50545 8.74999 3.50006H4.57999C4.16802 3.50545 3.83537 3.8381 3.82999 4.25006V6.42006C3.83537 6.83202 4.16802 7.16468 4.57999 7.17006H8.74999Z" fill="#545454"/>
<path fill-rule="evenodd" clip-rule="evenodd" d="M15.92 2.00006H19.42C20.6626 2.00006 21.67 3.00742 21.67 4.25006V11.0801C21.67 12.3227 20.6626 13.3301 19.42 13.3301H15.92C15.3224 13.3327 14.7486 13.0965 14.326 12.674C13.9035 12.2515 13.6673 11.6776 13.67 11.0801V4.25006C13.67 3.00742 14.6773 2.00006 15.92 2.00006ZM19.42 11.8301C19.8342 11.8301 20.17 11.4943 20.17 11.0801V4.25006C20.1646 3.8381 19.8319 3.50545 19.42 3.50006H15.92C15.5058 3.50006 15.17 3.83585 15.17 4.25006V11.0801C15.1673 11.2798 15.2454 11.4721 15.3866 11.6134C15.5279 11.7546 15.7202 11.8328 15.92 11.8301H19.42Z" fill="#545454"/>
<path fill-rule="evenodd" clip-rule="evenodd" d="M15.92 16.0001H19.42C20.6626 16.0001 21.67 17.0074 21.67 18.2501V19.7501C21.67 20.9927 20.6626 22.0001 19.42 22.0001H15.92C14.6773 22.0001 13.67 20.9927 13.67 19.7501V18.2501C13.67 17.0074 14.6773 16.0001 15.92 16.0001ZM19.42 20.5001C19.8319 20.4947 20.1646 20.162 20.17 19.7501V18.2501C20.1646 17.8381 19.8319 17.5054 19.42 17.5001H15.92C15.5058 17.5001 15.17 17.8358 15.17 18.2501V19.7501C15.17 20.1643 15.5058 20.5001 15.92 20.5001H19.42Z" fill="#545454"/>
<path fill-rule="evenodd" clip-rule="evenodd" d="M4.57999 11.3301H8.74999C9.99263 11.3301 11 12.3374 11 13.5801V19.7501C11 20.9927 9.99263 22.0001 8.74999 22.0001H4.57999C3.33735 22.0001 2.32999 20.9927 2.32999 19.7501V13.5801C2.32999 12.3374 3.33735 11.3301 4.57999 11.3301ZM8.74999 20.5001C9.16195 20.4947 9.4946 20.162 9.49999 19.7501V13.5801C9.4946 13.1681 9.16195 12.8355 8.74999 12.8301H4.57999C4.16802 12.8355 3.83537 13.1681 3.82999 13.5801V19.7501C3.83537 20.162 4.16802 20.4947 4.57999 20.5001H8.74999Z" fill="#545454"/>
</svg>
