<svg width="25" height="24" viewBox="0 0 25 24" fill="none" xmlns="http://www.w3.org/2000/svg">
<path d="M12.4424 20.1646C10.7893 21.1435 9.43948 21.6161 8.07121 21.9011C6.04758 22.3225 4.0708 21.358 2.80947 19.7602C2.27638 19.0849 2.45852 18.3107 3.1524 17.9114L4.71891 17.0098C5.96056 16.2953 6.58139 15.938 7.23959 16.0088C7.89779 16.0797 8.43386 16.5616 9.50601 17.5253L12.4424 20.1646ZM12.4424 20.1646C14.0704 19.2007 15.6184 17.9704 17 16.5638" stroke="white" stroke-width="1.5" stroke-linecap="round" stroke-linejoin="round"/>
<path d="M20.6646 11.9475C21.6435 10.2936 22.1161 8.94308 22.4011 7.5741C22.8225 5.54942 21.858 3.57162 20.2602 2.30963C19.5849 1.77627 18.8107 1.9585 18.4114 2.65274L17.5098 4.22006C16.7953 5.46236 16.438 6.08351 16.5088 6.74205C16.5797 7.40059 17.0616 7.93694 18.0253 9.00964L20.6646 11.9475ZM20.6646 11.9475C20.1448 12.8258 19.5474 13.6812 18.8863 14.5" stroke="white" stroke-width="1.5" stroke-linecap="round" stroke-linejoin="round"/>
<path d="M3.5 3L21.5 21" stroke="white" stroke-width="1.5" stroke-linecap="round"/>
</svg>
