<svg width="20" height="20" viewBox="0 0 20 20" fill="none" xmlns="http://www.w3.org/2000/svg">
<path d="M13.75 6.80005H6.25C5.90482 6.80005 5.625 7.07987 5.625 7.42505C5.625 7.77023 5.90482 8.05005 6.25 8.05005H13.75C14.0952 8.05005 14.375 7.77023 14.375 7.42505C14.375 7.07987 14.0952 6.80005 13.75 6.80005Z" fill="#2A7BE4"/>
<path fill-rule="evenodd" clip-rule="evenodd" d="M14.075 2.97504H14.1666C16.4678 2.97504 18.3333 4.84052 18.3333 7.14171V14.6417C18.3333 16.9429 16.4678 18.8084 14.1666 18.8084H5.83329C4.72822 18.8084 3.66842 18.3694 2.88701 17.588C2.10561 16.8066 1.66663 15.7468 1.66663 14.6417V7.14171C1.66663 4.84052 3.53211 2.97504 5.83329 2.97504H5.90829V2.91671V1.45837C5.90829 1.1132 6.18812 0.833374 6.53329 0.833374C6.87847 0.833374 7.15829 1.1132 7.15829 1.45837V2.91671V2.97504H12.825V2.91671V1.45837C12.825 1.1132 13.1048 0.833374 13.45 0.833374C13.7951 0.833374 14.075 1.1132 14.075 1.45837V2.91671V2.97504ZM14.1666 17.5584C15.7775 17.5584 17.0833 16.2525 17.0833 14.6417V7.14171C17.0833 5.53088 15.7775 4.22504 14.1666 4.22504H5.83329C4.22246 4.22504 2.91663 5.53088 2.91663 7.14171V14.6417C2.91663 16.2525 4.22246 17.5584 5.83329 17.5584H14.1666Z" fill="#2A7BE4"/>
</svg>
