<svg width="27" height="28" viewBox="0 0 27 28" fill="none" xmlns="http://www.w3.org/2000/svg">
<path d="M21.6133 18.3272C21.7152 18.3384 21.8206 18.3617 21.9248 18.4024L22.0801 18.4776L22.1709 18.5362C22.3659 18.6781 22.4825 18.8686 22.5518 19.0391L23.2568 20.7354L25.0166 21.503L25.0156 21.504C25.1862 21.5758 25.3727 21.6943 25.5107 21.8887L25.5684 21.9796L25.6406 22.1339C25.7 22.2894 25.7217 22.4467 25.7217 22.5919C25.7217 22.7854 25.6833 23.0005 25.5684 23.2042C25.4278 23.4532 25.2113 23.5973 25.0156 23.6797L25.0166 23.6807L23.248 24.4512L22.5459 26.045L22.5439 26.044C22.4516 26.2627 22.29 26.4799 22.0283 26.6124C21.8609 26.697 21.6703 26.75 21.4639 26.7501C21.2572 26.7501 21.0661 26.6972 20.8984 26.6124C20.6367 26.4799 20.4751 26.2628 20.3828 26.044L20.3809 26.045L19.6777 24.4512L17.9111 23.6807V23.6797C17.7156 23.5973 17.4998 23.4529 17.3594 23.2042C17.2731 23.0513 17.2301 22.892 17.2139 22.7403L17.2061 22.5919L17.2139 22.4434C17.2301 22.2918 17.2731 22.1323 17.3594 21.9796L17.417 21.8887C17.5549 21.6946 17.7408 21.5758 17.9111 21.504V21.503L19.6699 20.7354L20.375 19.0391C20.4544 18.8436 20.5971 18.6226 20.8477 18.4776L21.0029 18.4024C21.159 18.3414 21.3176 18.3194 21.4639 18.3194L21.6133 18.3272ZM9.04395 6.20514C9.34522 6.20514 9.62503 6.29241 9.87207 6.44244C10.139 6.60459 10.3439 6.83291 10.4805 7.10944L10.4844 7.11627L10.4873 7.12311L12.2383 10.8555L15.9199 12.545H15.9189C16.2106 12.677 16.4627 12.8836 16.6348 13.1739C16.7818 13.4221 16.8672 13.7009 16.8672 14.0001C16.8672 14.2993 16.7818 14.578 16.6348 14.8262C16.4628 15.1164 16.2104 15.3221 15.9189 15.4542L15.9199 15.4551L12.2383 17.1436L10.4941 20.8594C10.3633 21.1575 10.151 21.4223 9.83887 21.5909C9.59538 21.7223 9.32727 21.795 9.04395 21.795C8.74289 21.7949 8.46369 21.7076 8.2168 21.5577C7.94989 21.3956 7.74499 21.1672 7.6084 20.8907L7.60352 20.8819L7.59961 20.8731L5.87695 17.1436L2.16992 15.4561L2.14258 15.4424C1.86648 15.3027 1.6413 15.0943 1.48242 14.8262C1.3353 14.578 1.25 14.2993 1.25 14.0001C1.25 13.7008 1.33531 13.4221 1.48242 13.1739C1.6413 12.9058 1.86648 12.6974 2.14258 12.5577L2.16992 12.544L5.87793 10.8546L7.60059 7.15338C7.72966 6.86654 7.93161 6.61567 8.2168 6.44244C8.46369 6.29255 8.74289 6.2052 9.04395 6.20514ZM21.6133 1.25787C21.7153 1.26904 21.8205 1.29324 21.9248 1.33405L22.0801 1.40826L22.1709 1.46686C22.3606 1.60488 22.4749 1.78934 22.5449 1.95612L22.5459 1.95514L23.2471 3.54694L25.0264 4.31158C25.0294 4.31281 25.0331 4.31423 25.0361 4.31549L25.042 4.31842H25.041C25.2125 4.39013 25.4002 4.50947 25.5391 4.70514L25.5967 4.79596L25.6689 4.95026C25.7283 5.10575 25.75 5.26308 25.75 5.40826C25.75 5.60174 25.7116 5.81696 25.5967 6.02057C25.4573 6.26732 25.2431 6.41043 25.0488 6.49323L25.0498 6.4942L23.2549 7.2901L22.5508 8.96393L22.5498 8.96295C22.4702 9.15776 22.3294 9.37815 22.0801 9.52252C21.8759 9.64065 21.6591 9.6807 21.4639 9.68073C21.2686 9.68073 21.0519 9.64068 20.8477 9.52252C20.5918 9.37447 20.4485 9.14677 20.3701 8.9483V8.94733L19.6709 7.2901L17.8779 6.4942V6.49323C17.6839 6.41041 17.4703 6.267 17.3311 6.02057C17.2448 5.86781 17.2018 5.70836 17.1855 5.5567L17.1777 5.40826L17.1855 5.25983C17.2017 5.10811 17.2448 4.94878 17.3311 4.79596L17.3887 4.70514C17.5314 4.50409 17.7252 4.38253 17.9004 4.31158L19.6787 3.54694L20.3809 1.95514L20.3818 1.95612C20.4624 1.76416 20.6031 1.54977 20.8477 1.40826C21.0519 1.29011 21.2686 1.25006 21.4639 1.25006L21.6133 1.25787Z" stroke="#333333" stroke-width="1.5"/>
</svg>
