<svg width="25" height="24" viewBox="0 0 25 24" fill="none" xmlns="http://www.w3.org/2000/svg">
<path d="M2.5 11C2.5 7.70017 2.5 6.05025 3.52513 5.02513C4.55025 4 6.20017 4 9.5 4H10.5C13.7998 4 15.4497 4 16.4749 5.02513C17.5 6.05025 17.5 7.70017 17.5 11V13C17.5 16.2998 17.5 17.9497 16.4749 18.9749C15.4497 20 13.7998 20 10.5 20H9.5C6.20017 20 4.55025 20 3.52513 18.9749C2.5 17.9497 2.5 16.2998 2.5 13V11Z" stroke="#333333" stroke-width="1.5"/>
<path d="M17.5 8.90585L17.6259 8.80196C19.7417 7.05623 20.7996 6.18336 21.6498 6.60482C22.5 7.02628 22.5 8.42355 22.5 11.2181V12.7819C22.5 15.5765 22.5 16.9737 21.6498 17.3952C20.7996 17.8166 19.7417 16.9438 17.6259 15.198L17.5 15.0941" stroke="#333333" stroke-width="1.5" stroke-linecap="round"/>
</svg>
