<svg width="20" height="20" viewBox="0 0 20 20" fill="none" xmlns="http://www.w3.org/2000/svg">
<path fill-rule="evenodd" clip-rule="evenodd" d="M7.60474 10.1235C7.60474 8.83651 8.59835 7.79321 9.82403 7.79321C11.0497 7.79321 12.0433 8.83651 12.0433 10.1235C12.0433 11.4104 11.0497 12.4537 9.82403 12.4537C8.59835 12.4537 7.60474 11.4104 7.60474 10.1235ZM9.0521 10.1235C9.0521 10.5711 9.39771 10.934 9.82403 10.934C10.2504 10.934 10.596 10.5711 10.596 10.1235C10.596 9.67583 10.2504 9.31295 9.82403 9.31295C9.39771 9.31295 9.0521 9.67583 9.0521 10.1235Z" fill="white"/>
<path fill-rule="evenodd" clip-rule="evenodd" d="M14.3687 5.83774L18.402 9.22168C18.6628 9.44088 18.8146 9.77263 18.8146 10.1234C18.8146 10.4742 18.6628 10.8059 18.402 11.0251L14.3687 14.4091C11.7103 16.637 7.93751 16.637 5.27919 14.4091L1.24586 11.0251C0.985057 10.8059 0.833252 10.4742 0.833252 10.1234C0.833252 9.77263 0.985057 9.44088 1.24586 9.22168L5.27919 5.83774C7.93751 3.60975 11.7103 3.60975 14.3687 5.83774ZM6.17656 13.2743C8.31133 15.0583 11.3365 15.0583 13.4713 13.2743L17.1573 10.1234L13.4713 7.02313C11.3365 5.23912 8.31133 5.23912 6.17656 7.02313L2.49059 10.1234L6.17656 13.2743Z" fill="white"/>
</svg>
