<svg width="20" height="20" viewBox="0 0 20 20" fill="none" xmlns="http://www.w3.org/2000/svg">
<g clip-path="url(#clip0_613_9234)">
<path d="M18.3327 9.639C18.3327 14.0417 14.6012 17.6112 9.99935 17.6112C9.45827 17.612 8.91868 17.5619 8.38718 17.4622C8.00462 17.3902 7.81333 17.3543 7.67979 17.3747C7.54624 17.3952 7.357 17.4957 6.97851 17.6971C5.9078 18.2665 4.65931 18.4676 3.45861 18.2442C3.91497 17.6829 4.22664 17.0094 4.36417 16.2874C4.4475 15.8457 4.24102 15.4167 3.93176 15.1027C2.52712 13.6763 1.66602 11.7543 1.66602 9.639C1.66602 5.23639 5.3975 1.66675 9.99935 1.66675C14.6012 1.66675 18.3327 5.23639 18.3327 9.639Z" stroke="#2A7BE4" stroke-width="1.5" stroke-linejoin="round"/>
<path d="M9.9956 10H10.0031M13.3252 10H13.3327M6.66602 10H6.67349" stroke="#2A7BE4" stroke-width="2" stroke-linecap="round" stroke-linejoin="round"/>
</g>
<defs>
<clipPath id="clip0_613_9234">
<rect width="20" height="20" fill="white"/>
</clipPath>
</defs>
</svg>
