<svg width="32" height="32" viewBox="0 0 32 32" fill="none" xmlns="http://www.w3.org/2000/svg">
<path d="M14.6667 9.33317H22.6667M14.6667 6.6665V11.9998C14.6667 14.209 16.4575 15.9998 18.6667 15.9998C20.8759 15.9998 22.6667 14.209 22.6667 11.9998V6.6665C22.6667 4.45737 20.8759 2.6665 18.6667 2.6665C16.4575 2.6665 14.6667 4.45737 14.6667 6.6665Z" stroke="#2A7BE4" stroke-width="1.5" stroke-linecap="round" stroke-linejoin="round"/>
<path d="M5.33325 18.6665H8.52635C8.91855 18.6665 9.30536 18.7549 9.65615 18.9246L12.3788 20.242C12.7296 20.4117 13.1164 20.5 13.5086 20.5H14.8987C16.2433 20.5 17.3333 21.5548 17.3333 22.8558C17.3333 22.9084 17.2973 22.9546 17.245 22.969L13.8571 23.9058C13.2493 24.0738 12.5986 24.0153 12.0333 23.7417L9.12273 22.3336" stroke="#2A7BE4" stroke-width="1.5" stroke-linecap="round" stroke-linejoin="round"/>
<path d="M17.3333 22L23.457 20.1186C24.5426 19.7803 25.7161 20.1814 26.3961 21.1231C26.8878 21.8039 26.6875 22.779 25.9713 23.1923L15.9505 28.974C15.3131 29.3418 14.5611 29.4315 13.8602 29.2235L5.33325 26.6932" stroke="#2A7BE4" stroke-width="1.5" stroke-linecap="round" stroke-linejoin="round"/>
</svg>
