<svg width="24" height="24" viewBox="0 0 24 24" fill="none" xmlns="http://www.w3.org/2000/svg">
<path d="M7.18848 4.5625H5.43848C4.95523 4.5625 4.56348 4.95425 4.56348 5.4375V8.5C4.56348 11.1579 6.7181 13.3125 9.37598 13.3125C12.0339 13.3125 14.1885 11.1579 14.1885 8.5V5.4375C14.1885 4.95425 13.7967 4.5625 13.3135 4.5625H11.5635" stroke="#2A7BE4" stroke-width="1.5" stroke-linecap="round" stroke-linejoin="round"/>
<path d="M17.6875 15.0625V16.1562C17.6875 18.4517 15.8267 20.3125 13.5312 20.3125C11.2358 20.3125 9.375 18.4517 9.375 16.1562V13.3125" stroke="#2A7BE4" stroke-width="1.5" stroke-linecap="round" stroke-linejoin="round"/>
<path d="M11.5615 3.6875V5.4375" stroke="#2A7BE4" stroke-width="1.5" stroke-linecap="round" stroke-linejoin="round"/>
<path d="M7.18848 3.6875V5.4375" stroke="#545454" stroke-width="1.5" stroke-linecap="round" stroke-linejoin="round"/>
<path d="M19.4375 13.3125C19.4375 14.279 18.654 15.0625 17.6875 15.0625C16.721 15.0625 15.9375 14.279 15.9375 13.3125C15.9375 12.346 16.721 11.5625 17.6875 11.5625C18.654 11.5625 19.4375 12.346 19.4375 13.3125Z" stroke="#545454" stroke-width="1.5"/>
</svg>
