<svg width="20" height="20" viewBox="0 0 20 20" fill="none" xmlns="http://www.w3.org/2000/svg">
<g clip-path="url(#clip0_613_7683)">
<path d="M11.6666 1.66675H8.33329C5.6006 1.66675 4.23426 1.66675 3.26571 2.34493C2.90738 2.59584 2.59571 2.9075 2.34481 3.26584C1.66663 4.23438 1.66663 5.60072 1.66663 8.33341C1.66663 11.0661 1.66663 12.4325 2.34481 13.401C2.59571 13.7593 2.90738 14.071 3.26571 14.3219C4.23426 15.0001 5.6006 15.0001 8.33329 15.0001H11.6666C14.3993 15.0001 15.7657 15.0001 16.7342 14.3219C17.0925 14.071 17.4042 13.7593 17.6551 13.401C18.3333 12.4325 18.3333 11.0661 18.3333 8.33341C18.3333 5.60072 18.3333 4.23438 17.6551 3.26584C17.4042 2.9075 17.0925 2.59584 16.7342 2.34493C15.7657 1.66675 14.3993 1.66675 11.6666 1.66675Z" stroke="#2A7BE4" stroke-width="1.5" stroke-linecap="round"/>
<path d="M9.16663 12.5H10.8333" stroke="#2A7BE4" stroke-width="1.5" stroke-linecap="round" stroke-linejoin="round"/>
<path d="M12.0833 18.3333L11.8204 17.9843C11.2277 17.1974 11.0807 15.9953 11.4556 15M7.91663 18.3333L8.17954 17.9843C8.77224 17.1974 8.91917 15.9953 8.54432 15" stroke="#2A7BE4" stroke-width="1.5" stroke-linecap="round"/>
<path d="M5.83337 18.3334H14.1667" stroke="#2A7BE4" stroke-width="1.5" stroke-linecap="round"/>
</g>
<defs>
<clipPath id="clip0_613_7683">
<rect width="20" height="20" fill="white"/>
</clipPath>
</defs>
</svg>
