<svg width="20" height="21" viewBox="0 0 20 21" fill="none" xmlns="http://www.w3.org/2000/svg">
<path d="M10.8337 3.00008C10.8337 2.53984 10.4606 2.16675 10.0003 2.16675C9.54009 2.16675 9.16699 2.53984 9.16699 3.00008V10.9882L6.42291 8.24416C6.09748 7.91872 5.56984 7.91872 5.2444 8.24416C4.91897 8.5696 4.91897 9.09723 5.2444 9.42267L9.41107 13.5893C9.73651 13.9148 10.2641 13.9148 10.5896 13.5893L14.7562 9.42267C15.0817 9.09723 15.0817 8.5696 14.7562 8.24416C14.4308 7.91872 13.9032 7.91872 13.5777 8.24416L10.8337 10.9882V3.00008Z" fill="white"/>
<path d="M2.50033 12.1667C2.96056 12.1667 3.33366 12.5398 3.33366 13.0001V14.0001C3.33366 14.7139 3.33431 15.1991 3.36495 15.5742C3.3948 15.9396 3.44891 16.1264 3.51532 16.2567C3.6751 16.5703 3.93007 16.8253 4.24368 16.9851C4.37401 17.0515 4.56085 17.1056 4.92619 17.1355C5.30127 17.1661 5.78651 17.1667 6.50033 17.1667H13.5003C14.2141 17.1667 14.6994 17.1661 15.0745 17.1355C15.4398 17.1056 15.6266 17.0515 15.757 16.9851C16.0706 16.8253 16.3255 16.5703 16.4853 16.2567C16.5517 16.1264 16.6058 15.9396 16.6357 15.5742C16.6663 15.1991 16.667 14.7139 16.667 14.0001V13.0001C16.667 12.5398 17.0401 12.1667 17.5003 12.1667C17.9606 12.1667 18.3337 12.5398 18.3337 13.0001V14.0345C18.3337 14.7053 18.3337 15.2589 18.2968 15.7099C18.2586 16.1784 18.1764 16.6089 17.9703 17.0134C17.6508 17.6406 17.1408 18.1505 16.5136 18.4701C16.1092 18.6762 15.6786 18.7583 15.2102 18.7966C14.7592 18.8334 14.2056 18.8334 13.5347 18.8334H6.46591C5.7951 18.8334 5.24147 18.8334 4.79047 18.7966C4.32206 18.7583 3.89147 18.6762 3.48703 18.4701C2.85982 18.1505 2.34988 17.6406 2.0303 17.0134C1.82423 16.6089 1.74209 16.1784 1.70382 15.7099C1.66697 15.2589 1.66698 14.7053 1.66699 14.0345V13.0001C1.66699 12.5398 2.04009 12.1667 2.50033 12.1667Z" fill="white"/>
</svg>
