<svg width="20" height="20" viewBox="0 0 20 20" fill="none" xmlns="http://www.w3.org/2000/svg">
<path d="M7.20836 6.32497C6.96211 6.0955 6.57836 6.10228 6.34035 6.34029C6.10234 6.5783 6.09557 6.96205 6.32503 7.2083L9.47503 10.3583V14.2666C9.47503 14.6118 9.75485 14.8916 10.1 14.8916C10.4452 14.8916 10.725 14.6118 10.725 14.2666V10.1C10.7249 9.93427 10.6589 9.7754 10.5417 9.6583L7.20836 6.32497Z" fill="#2A7BE4"/>
<path fill-rule="evenodd" clip-rule="evenodd" d="M8.33335 1.66663H11.8667C13.6348 1.66663 15.3305 2.36901 16.5807 3.61925C17.831 4.86949 18.5334 6.56518 18.5334 8.33329V11.8666C18.5334 15.5485 15.5486 18.5333 11.8667 18.5333H8.33335C4.65146 18.5333 1.66669 15.5485 1.66669 11.8666V8.33329C1.66669 4.65139 4.65146 1.66663 8.33335 1.66663ZM11.8667 17.2833C14.8563 17.2787 17.2788 14.8563 17.2834 11.8666V8.33329C17.2788 5.34365 14.8563 2.92121 11.8667 2.91663H8.33335C5.34371 2.92121 2.92128 5.34365 2.91669 8.33329V11.8666C2.92128 14.8563 5.34371 17.2787 8.33335 17.2833H11.8667Z" fill="#2A7BE4"/>
</svg>
