<svg width="19" height="18" viewBox="0 0 19 18" fill="none" xmlns="http://www.w3.org/2000/svg">
<path d="M5.25002 2.33341C5.71026 2.33342 6.08335 1.96032 6.08335 1.50008C6.08335 1.03984 5.71026 0.666748 5.25002 0.666748H4.00002C2.15907 0.666748 0.666687 2.15913 0.666687 4.00008V14.0001C0.666687 15.841 2.15907 17.3334 4.00002 17.3334H5.25002C5.71026 17.3334 6.08335 16.9603 6.08335 16.5001C6.08335 16.0398 5.71026 15.6667 5.25002 15.6667H4.00002C3.07955 15.6667 2.33335 14.9206 2.33335 14.0001L2.33335 4.00008C2.33335 3.07961 3.07955 2.33341 4.00002 2.33341H5.25002Z" fill="#333333"/>
<path d="M17.9226 9.58934C18.248 9.2639 18.248 8.73626 17.9226 8.41083L14.5893 5.07749C14.2638 4.75206 13.7362 4.75206 13.4108 5.07749C13.0853 5.40293 13.0853 5.93057 13.4108 6.256L15.3215 8.16675L5.66669 8.16675C5.20645 8.16675 4.83335 8.53984 4.83335 9.00008C4.83335 9.46032 5.20645 9.83341 5.66669 9.83341L15.3215 9.83342L13.4108 11.7442C13.0853 12.0696 13.0853 12.5972 13.4108 12.9227C13.7362 13.2481 14.2638 13.2481 14.5893 12.9227L17.9226 9.58934Z" fill="#333333"/>
</svg>
