<svg width="20" height="20" viewBox="0 0 20 20" fill="none" xmlns="http://www.w3.org/2000/svg">
<path d="M10.0002 6.87507C9.38213 6.87507 8.77794 7.05835 8.26404 7.40173C7.75013 7.74511 7.34959 8.23317 7.11307 8.80418C6.87655 9.3752 6.81466 10.0035 6.93524 10.6097C7.05582 11.2159 7.35345 11.7727 7.79049 12.2098C8.22752 12.6468 8.78435 12.9444 9.39054 13.065C9.99673 13.1856 10.6251 13.1237 11.1961 12.8872C11.7671 12.6507 12.2552 12.2501 12.5985 11.7362C12.9419 11.2223 13.1252 10.6181 13.1252 10.0001C13.1252 9.17127 12.796 8.37641 12.2099 7.79036C11.6239 7.20431 10.829 6.87507 10.0002 6.87507ZM10.0002 11.8751C9.62935 11.8751 9.26684 11.7651 8.9585 11.5591C8.65016 11.353 8.40983 11.0602 8.26792 10.7176C8.12601 10.375 8.08887 9.99799 8.16122 9.63428C8.23357 9.27056 8.41215 8.93647 8.67437 8.67424C8.93659 8.41202 9.27069 8.23344 9.6344 8.1611C9.99811 8.08875 10.3751 8.12588 10.7177 8.2678C11.0603 8.40971 11.3532 8.65003 11.5592 8.95838C11.7652 9.26672 11.8752 9.62923 11.8752 10.0001C11.8752 10.4974 11.6777 10.9743 11.326 11.3259C10.9744 11.6775 10.4975 11.8751 10.0002 11.8751ZM15.7588 12.4329C15.4903 13.0677 15.1186 13.6537 14.6588 14.1673C14.5475 14.2877 14.3932 14.3596 14.2294 14.3674C14.0655 14.3751 13.9052 14.3181 13.7829 14.2087C13.6607 14.0993 13.5864 13.9463 13.576 13.7825C13.5657 13.6188 13.6201 13.4576 13.7275 13.3337C14.5482 12.4174 15.002 11.2305 15.002 10.0005C15.002 8.77039 14.5482 7.58355 13.7275 6.66726C13.6713 6.60637 13.6277 6.53489 13.5993 6.45698C13.5709 6.37908 13.5583 6.29631 13.5622 6.21349C13.5662 6.13067 13.5865 6.04946 13.6221 5.97458C13.6578 5.89971 13.7079 5.83267 13.7697 5.77737C13.8315 5.72207 13.9036 5.67962 13.982 5.65248C14.0603 5.62535 14.1433 5.61407 14.226 5.61931C14.3088 5.62455 14.3897 5.6462 14.4639 5.683C14.5382 5.7198 14.6045 5.77102 14.6588 5.83366C15.448 6.71674 15.9703 7.80568 16.165 8.97389C16.3597 10.1421 16.2189 11.3416 15.7588 12.4329ZM5.39082 8.05398C5.02205 8.92692 4.90895 9.88669 5.0647 10.8214C5.22045 11.7562 5.63862 12.6274 6.27051 13.3337C6.37796 13.4576 6.43237 13.6188 6.42201 13.7825C6.41164 13.9463 6.33733 14.0993 6.2151 14.2087C6.09288 14.3181 5.93254 14.3751 5.76869 14.3674C5.60483 14.3596 5.45059 14.2877 5.33926 14.1673C4.31315 13.0219 3.74574 11.5382 3.74574 10.0005C3.74574 8.4627 4.31315 6.97901 5.33926 5.83366C5.4498 5.70986 5.60499 5.63504 5.7707 5.62567C5.9364 5.61629 6.09905 5.67312 6.22285 5.78366C6.34665 5.89421 6.42147 6.0494 6.43085 6.21511C6.44023 6.38081 6.38339 6.54346 6.27285 6.66726C5.9041 7.07748 5.60604 7.5461 5.39082 8.05398ZM19.3752 10.0001C19.379 12.4545 18.4167 14.8119 16.6963 16.5626C16.6394 16.6234 16.5709 16.6723 16.4948 16.7063C16.4187 16.7403 16.3366 16.7587 16.2533 16.7605C16.17 16.7623 16.0872 16.7474 16.0097 16.7167C15.9322 16.6861 15.8617 16.6402 15.8022 16.5819C15.7427 16.5235 15.6955 16.4539 15.6633 16.377C15.6311 16.3002 15.6147 16.2176 15.6148 16.1343C15.615 16.051 15.6318 15.9685 15.6643 15.8918C15.6968 15.8151 15.7444 15.7457 15.8041 15.6876C17.2937 14.1699 18.1283 12.1282 18.1283 10.0016C18.1283 7.87504 17.2937 5.83338 15.8041 4.3157C15.6877 4.19738 15.623 4.03766 15.6243 3.87166C15.6256 3.70566 15.6928 3.54699 15.8111 3.43054C15.9294 3.31409 16.0892 3.24941 16.2552 3.25073C16.4212 3.25205 16.5798 3.31926 16.6963 3.43757C18.4167 5.18822 19.379 7.54559 19.3752 10.0001ZM4.19629 15.686C4.25384 15.7446 4.2993 15.8139 4.33005 15.8901C4.36081 15.9662 4.37627 16.0477 4.37554 16.1298C4.37482 16.2119 4.35792 16.2931 4.32583 16.3687C4.29373 16.4443 4.24706 16.5128 4.18848 16.5704C4.12989 16.6279 4.06055 16.6734 3.9844 16.7041C3.90825 16.7349 3.82679 16.7504 3.74467 16.7496C3.66255 16.7489 3.58137 16.732 3.50578 16.6999C3.43019 16.6678 3.36166 16.6212 3.3041 16.5626C1.58393 14.8114 0.620117 12.4548 0.620117 10.0001C0.620117 7.54535 1.58393 5.18876 3.3041 3.43757C3.36102 3.37672 3.42953 3.32786 3.5056 3.29387C3.58167 3.25988 3.66378 3.24144 3.74708 3.23965C3.83038 3.23785 3.9132 3.25273 3.99067 3.28341C4.06814 3.31408 4.13869 3.35994 4.19818 3.41828C4.25767 3.47662 4.30489 3.54627 4.33707 3.62313C4.36925 3.69999 4.38573 3.7825 4.38556 3.86583C4.38538 3.94915 4.36855 4.03159 4.33604 4.10831C4.30354 4.18503 4.25602 4.25448 4.19629 4.31257C2.70665 5.83026 1.8721 7.87192 1.8721 9.99851C1.8721 12.1251 2.70665 14.1668 4.19629 15.6844V15.686Z" fill="#0F973D"/>
</svg>
