<svg width="25" height="24" viewBox="0 0 25 24" fill="none" xmlns="http://www.w3.org/2000/svg">
<path d="M2.5 2L22.5 22" stroke="white" stroke-width="1.5" stroke-linecap="round"/>
<path d="M4.5 11C4.5 15.4183 8.08172 19 12.5 19M12.5 19C14.4545 19 16.2454 18.2991 17.6348 17.1348M12.5 19V22M12.5 22H15.5M12.5 22H9.5M20.5 11C20.5 12.6514 19.9996 14.1859 19.1422 15.4603" stroke="white" stroke-width="1.5" stroke-linecap="round"/>
<path d="M17.5078 6.99587C17.5078 4.23445 15.2692 2.01587 12.5078 2.01587C10.639 2.01587 9.0379 2.98114 8.17981 4.49987M17.5078 6.99587L14.4798 7.00787M17.5078 6.99587V11.0039M17.5078 11.0039V11.0159C17.5078 11.8468 17.3051 12.5704 16.9465 13.2599M17.5078 11.0039H14.6829M7.50781 6.99587V11.0159C7.50781 13.7773 9.74639 16.0159 12.5078 16.0159C13.6432 16.0159 14.6725 15.6255 15.5118 14.9879" stroke="white" stroke-width="1.5" stroke-linecap="round"/>
</svg>
