<svg width="25" height="24" viewBox="0 0 25 24" fill="none" xmlns="http://www.w3.org/2000/svg">
<path d="M16.1657 3.88789C15.8991 2.94272 15.0305 2.25 14 2.25H11C9.96954 2.25 9.10087 2.94272 8.83426 3.88789M16.1657 3.88789C16.2206 4.0825 16.25 4.28782 16.25 4.5V4.5C16.25 4.91421 15.9142 5.25 15.5 5.25H9.5C9.08579 5.25 8.75 4.91421 8.75 4.5V4.5C8.75 4.28782 8.77937 4.0825 8.83426 3.88789M16.1657 3.88789C16.8119 3.93668 17.4545 3.99828 18.0933 4.07241C19.1939 4.20014 20 5.149 20 6.25699V19.5C20 20.7426 18.9926 21.75 17.75 21.75H7.25C6.00736 21.75 5 20.7426 5 19.5V6.25699C5 5.149 5.80608 4.20014 6.90668 4.07241C7.54547 3.99828 8.18808 3.93668 8.83426 3.88789" stroke="#0C0C0C" stroke-width="1.5" stroke-linecap="round" stroke-linejoin="round"/>
</svg>
