<svg width="49" height="48" viewBox="0 0 49 48" fill="none" xmlns="http://www.w3.org/2000/svg">
<path fill-rule="evenodd" clip-rule="evenodd" d="M42.7131 30.96C41.8246 30.2 41.3131 29.0892 41.3131 27.92V18.28C41.3131 10.38 34.1531 4 25.3131 4C16.4731 4 9.31314 10.38 9.31314 18.28V27.92C9.31321 29.0892 8.80169 30.2 7.91314 30.96C4.89314 33.66 7.03314 38.26 11.3131 38.26H18.9131C19.8828 40.9608 22.4435 42.7622 25.3131 42.7622C28.1827 42.7622 30.7435 40.9608 31.7131 38.26H39.3131C43.5931 38.26 45.7331 33.66 42.7131 30.96ZM25.3131 39.76C24.1227 39.7555 23.001 39.202 22.2731 38.26H28.2731C27.5684 39.1871 26.4775 39.74 25.3131 39.76ZM39.3331 35.26C40.0603 35.3259 40.7525 34.936 41.0731 34.28C41.2288 33.8849 41.0871 33.4347 40.7331 33.2C39.2263 31.8558 38.3551 29.9392 38.3331 27.92V18.28C38.3331 12.06 32.4931 7 25.3331 7C18.1731 7 12.3331 12.06 12.3331 18.28V27.92C12.3112 29.9392 11.44 31.8558 9.93314 33.2C9.57178 33.4287 9.42129 33.8802 9.57314 34.28C9.89373 34.936 10.586 35.3259 11.3131 35.26H39.3331Z" fill="#2A7BE4"/>
</svg>
