<svg width="20" height="20" viewBox="0 0 20 20" fill="none" xmlns="http://www.w3.org/2000/svg">
<path fill-rule="evenodd" clip-rule="evenodd" d="M16.275 7.86668L10.4416 2.03334C10.3188 1.92812 10.1616 1.87176 9.99996 1.87501H7.49996C5.31383 1.87501 3.54163 3.64722 3.54163 5.83334V14.1667C3.54163 16.3528 5.31383 18.125 7.49996 18.125H12.5C14.6861 18.125 16.4583 16.3528 16.4583 14.1667V8.33334C16.4611 8.1597 16.3952 7.99196 16.275 7.86668ZM10.625 3.99168L14.3416 7.70834H11.6666C11.0913 7.70834 10.625 7.24197 10.625 6.66668V3.99168ZM7.49996 16.875H12.5C13.9938 16.8704 15.2037 15.6606 15.2083 14.1667V8.95834H11.6666C10.401 8.95834 9.37496 7.93233 9.37496 6.66668V3.12501H7.49996C6.00609 3.12959 4.7962 4.33947 4.79163 5.83334V14.1667C4.7962 15.6606 6.00609 16.8704 7.49996 16.875Z" fill="#2A7BE4"/>
</svg>
